<svg xmlns="http://www.w3.org/2000/svg" viewBox="0 0 480 480"><path fill="#befa91" d="M472,80.5v310c0,13.25-10.75,24-24,24H296.83c-9.63,0-17.87,6.41-20.85,15.57	c-1.5,4.59-4.38,8.44-8.1,11.15c-7.61,5.535-11.998,4.28-43.05,4.28c-9.63,0-17.87-6.41-20.85-15.57	c-3.009-9.208-11.57-15.43-21.27-15.43H32c-13.25,0-24-10.75-24-24v-310c0-13.25,10.75-24,24-24c0.141,0,19.95-0.006,20.09,0.01	C53.1,44.19,63.42,34.5,76,34.5h140c7.353,0,13.939,3.347,18.2,8.36c3.23,3.75,8.98,3.6,12.21-0.15	c4.402-5.106,10.634-8.21,17.59-8.21h140c12.58,0,22.9,9.69,23.91,22.01c0.14-0.016,19.949-0.01,20.09-0.01	C461.25,56.5,472,67.25,472,80.5z"></path><path fill="#e3f7fc" d="M428,349.5c0,13.255-10.745,24-24,24H264c-6.025,0-11.747,2.239-16.147,6.252	c-4.206,3.823-10.82,4.375-15.853-0.132c-4.25-3.81-9.86-6.12-16-6.12H76c-13.255,0-24-10.745-24-24	c0-308.019-0.048-291.499,0.09-292.99C53.1,44.19,63.42,34.5,76,34.5h140c7.353,0,13.939,3.347,18.2,8.36	c3.23,3.75,8.98,3.6,12.21-0.15c4.402-5.106,10.634-8.21,17.59-8.21h140c12.58,0,22.9,9.69,23.91,22.01	C428.047,57.992,428,41.241,428,349.5z"></path><path fill="#fe4f60" d="M362,34.5v76.313c0,5.884-6.138,9.755-11.448,7.219l-15.156-7.239c-4.361-2.083-9.43-2.083-13.791,0	l-15.156,7.239c-5.31,2.536-11.448-1.335-11.448-7.219V34.5H362z"></path><path fill="#caf1fc" d="M194.606,58.787c12.131,98.9-34.31,188.211-128.337,221.525C57.694,283.35,52,291.509,52,300.605	V349.5c0,13.255,10.745,24,24,24h140c6.14,0,11.75,2.31,16,6.12V40.63C216.262,26.451,192.12,38.523,194.606,58.787z"></path><path fill="#caf1fc" d="M427.91,56.51C426.9,44.19,416.58,34.5,404,34.5c-8.171,0-14.504,7.148-13.511,15.259	c13.577,110.859-35.573,214.72-135.218,267.868c-4.458,2.378-7.272,6.989-7.272,12.042v49.951c4.25-3.81,9.86-6.12,16-6.12h140	c13.255,0,24-10.75,24-24.005C428,41.241,428.047,57.992,427.91,56.51z"></path><path fill="#ff6d7a" d="M343.294,34.5c12.246,0,13.25,19-0.294,19c-16.016,0-29,12.984-29,29v23.555	c0,5.112-2.935,9.769-7.547,11.974c-5.311,2.539-11.453-1.332-11.453-7.219V34.5H343.294z"></path><path fill="#daffbf" d="M45.009,414.5H32c-13.255,0-24-10.745-24-24v-310c0-13.255,10.745-24,24-24	c0.141,0,19.95-0.006,20.09,0.01C51.953,57.992,52,41.241,52,349.5c0,7.185,3.164,13.637,8.176,18.033	c9.088,7.973,7.733,17.686,7.828,23.363C68.219,403.836,57.951,414.5,45.009,414.5z"></path><path d="M480,80.5v310c0,17.645-14.355,32-32,32H297.287c-6.257,0-11.752,4.001-13.673,9.956	c-4.061,12.587-15.674,21.044-28.9,21.044h-29.427c-13.226,0-24.84-8.457-28.9-21.044c-1.921-5.955-7.416-9.956-13.673-9.956H32	c-17.645,0-32-14.355-32-32v-310c0-17.645,14.355-32,32-32h13.609c4.21-12.761,16.238-22,30.391-22h120c4.418,0,8,3.582,8,8	s-3.582,8-8,8H76c-8.822,0-16,7.178-16,16v291c0,8.822,7.178,16,16,16h140c9.547,0,18.132,4.203,24,10.856	c5.868-6.653,14.453-10.856,24-10.856h140c8.822,0,16-7.178,16-16v-291c0-8.822-7.178-16-16-16H303v68.313l22.052-10.532	c2.181-1.042,4.715-1.042,6.896,0L354,110.813V84.5c0-4.418,3.582-8,8-8s8,3.582,8,8v39c0,5.877-6.144,9.752-11.448,7.219	L328.5,116.366l-30.052,14.353C293.146,133.25,287,129.38,287,123.5v-81h-23c-8.822,0-16,7.178-16,16v263c0,4.418-3.582,8-8,8	s-8-3.582-8-8v-263c0-17.645,14.355-32,32-32h140c17.645,0,32,14.355,32,32v291c0,17.645-14.355,32-32,32H264	c-8.822,0-16,7.178-16,16c0,4.418-3.582,8-8,8s-8-3.582-8-8c0-8.822-7.178-16-16-16H76c-17.645,0-32-14.355-32-32v-285H32	c-8.822,0-16,7.178-16,16v310c0,8.822,7.178,16,16,16h150.713c13.226,0,24.84,8.457,28.9,21.044	c1.921,5.955,7.416,9.956,13.673,9.956h29.427c6.257,0,11.752-4.001,13.673-9.956c4.061-12.587,15.674-21.044,28.9-21.044H448	c8.822,0,16-7.178,16-16v-310c0-4.418,3.582-8,8-8S480,76.082,480,80.5z"></path></svg>