<svg xmlns="http://www.w3.org/2000/svg" viewBox="0 0 64 64"><rect width="58" height="60" x="3" y="2" fill="#454a6d"></rect><rect width="4" height="4" x="7" y="6" fill="#eae8e5"></rect><rect width="4" height="4" x="7" y="14" fill="#eae8e5"></rect><rect width="4" height="4" x="7" y="22" fill="#eae8e5"></rect><rect width="4" height="4" x="7" y="30" fill="#eae8e5"></rect><rect width="4" height="4" x="7" y="38" fill="#eae8e5"></rect><rect width="4" height="4" x="7" y="46" fill="#eae8e5"></rect><rect width="4" height="4" x="7" y="54" fill="#eae8e5"></rect><rect width="4" height="4" x="53" y="6" fill="#eae8e5"></rect><rect width="4" height="4" x="53" y="14" fill="#eae8e5"></rect><rect width="4" height="4" x="53" y="22" fill="#eae8e5"></rect><rect width="4" height="4" x="53" y="30" fill="#eae8e5"></rect><rect width="4" height="4" x="53" y="38" fill="#eae8e5"></rect><rect width="4" height="4" x="53" y="46" fill="#eae8e5"></rect><rect width="4" height="4" x="53" y="54" fill="#eae8e5"></rect><path fill="#e89d43" d="M42,43H22c-2.209,0-4-1.791-4-4V25c0-2.209,1.791-4,4-4h20c2.209,0,4,1.791,4,4v14	C46,41.209,44.209,43,42,43z"></path><polygon fill="#454a6d" points="27,37 27,27 38,32"></polygon></svg>