<svg xmlns="http://www.w3.org/2000/svg" viewBox="0 0 64 64"><g data-name="18-Politics"><polygon fill="#795799" points="6 17 6 1 22 1 22 14 24 17 6 17"></polygon><polygon fill="#795799" points="34 20 36.65 20.59 34 25 32 23 34 21 34 20"></polygon><polygon fill="#795799" points="32 23 30 25 27.35 20.59 30 20 30 21 32 23"></polygon><path fill="#ffd1d1" d="M59.61,22.26,56,26l-3-3,2.16-1.95a.948.948,0,0,1,1.34,0l.28.27.94-.93a1.34,1.34,0,0,1,1.89,0,1.286,1.286,0,0,1,.39.93A1.325,1.325,0,0,1,59.61,22.26Z"></path><polygon fill="#f0f0f0" points="37 21 32 33 27 21 26.93 20.68 27.35 20.59 30 25 32 23 34 25 36.65 20.59 37.07 20.68 37 21"></polygon><polygon fill="#9c929b" points="49 42 49 46 46 46 18 46 15 46 15 42 49 42"></polygon><polygon fill="#d6d6d6" points="52 36 52 42 49 42 15 42 12 42 12 36 21 36 41 36 52 36"></polygon><path fill="#795799" d="M18,28a2.006,2.006,0,0,1-2,2,2.015,2.015,0,0,1-2-2,2,2,0,0,1,4,0Z"></path><path fill="#dba0a0" d="M32,19a4.983,4.983,0,0,1-2-.422V21l2,2,2-2V18.577A4.963,4.963,0,0,1,32,19Z"></path><path fill="#795799" d="M48,27l-5-5-5.93-1.32L37,21,32,33,27,21l-.07-.32-3.58.8A3,3,0,0,0,21,24.41V36H41V29l5.76,3.29a1.992,1.992,0,0,0,2.31-.23l4.8-4.19-3.092-3.092Z"></path><polygon fill="#cfbce0" points="53 23 50.778 24.778 53.87 27.87 56 26 53 23"></polygon><path fill="#827a81" d="M49,42H15v4h3a2,2,0,0,1,2-2H49Z"></path><path fill="#bfbfbf" d="M12,36h4a4,4,0,0,0,4,4H52v2H12Z"></path><path fill="#606875" d="M37,9v3a7.467,7.467,0,0,1-3-3c-1,2-7,3-7,3V9A5,5,0,0,1,37,9Z"></path><path fill="#ffd1d1" d="M37,12v2a5,5,0,1,1-10,0V12s6-1,7-3A7.467,7.467,0,0,0,37,12Z"></path><path fill="#4d545e" d="M30,9a4.9,4.9,0,0,1,3.5-4.746A4.96,4.96,0,0,0,32,4a4.985,4.985,0,0,0-5,5v3a27.556,27.556,0,0,0,3-.713Z"></path><path fill="#e8b7b7" d="M30,14V11.287A27.556,27.556,0,0,1,27,12v2a4.985,4.985,0,0,0,5,5,4.96,4.96,0,0,0,1.5-.254A4.9,4.9,0,0,1,30,14Z"></path><path fill="#3a393f" d="M35,5.023V4a3,3,0,0,0-6,0V5.018a4.92,4.92,0,0,1,6,0Z"></path><polygon fill="#573875" points="35.848 21.924 36.65 20.59 34 20 34 21 35.848 21.924"></polygon><polygon fill="#573875" points="30 20 27.35 20.59 28.152 21.924 30 21 30 20"></polygon><path fill="#573875" d="M48,30l-5.5-3.145a1,1,0,0,0-1.5.868V29l5.76,3.29a1.992,1.992,0,0,0,2.31-.23l4.8-4.19-1.3-1.3Z"></path><polygon fill="#9988be" points="52.571 26.571 53.87 27.87 56 26 54.857 24.857 52.571 26.571"></polygon><path fill="#573875" d="M22.012,22.161A3,3,0,0,0,21,24.41V36H41V35C30.578,35,22.139,29.272,22.012,22.161Z"></path><rect width="28" height="17" x="18" y="46" fill="#795799"></rect><path fill="#573875" d="M46,46H18V63h6V59a8,8,0,0,1,8-8H46Z"></path><path d="M60.313,19.678a2.346,2.346,0,0,0-3.3,0l-.309.3a1.93,1.93,0,0,0-2.214.324l-2.144,1.932L48.074,25.66l-4.367-4.367a1,1,0,0,0-.49-.269L35,19.2v-.01A6,6,0,0,0,38,14V9a5.983,5.983,0,0,0-2-4.46V4a4,4,0,0,0-8,0v.54A5.983,5.983,0,0,0,26,9v5a6,6,0,0,0,3,5.188v.01l-5.867,1.3A3.977,3.977,0,0,0,20,24.407V33h2V24.407a1.99,1.99,0,0,1,1.566-1.953l2.706-.6,4.805,11.532a1,1,0,0,0,1.846,0l4.805-11.532,4.771,1.06,4.794,4.794a1,1,0,0,0,1.332.074L50.7,26.118l1.7,1.7-3.99,3.492a1,1,0,0,1-1.155.115L41.5,28.132A1,1,0,0,0,40,29v6H13V32.414L14.715,30.7A2.951,2.951,0,0,0,16,31a3,3,0,1,0-3-3,2.951,2.951,0,0,0,.3,1.285l-2.008,2.008A1,1,0,0,0,11,32V42a1,1,0,0,0,1,1h2v3a1,1,0,0,0,1,1h2V63h2V47H45V63h2V47h2a1,1,0,0,0,1-1V43h2a1,1,0,0,0,1-1V36a1,1,0,0,0-1-1H42V30.723l4.267,2.438a3,3,0,0,0,3.463-.347l6.928-6.062c.022-.019.032-.047.052-.067l.01.009,3.593-3.726a2.313,2.313,0,0,0,0-3.29ZM32,21.586l-1-1V19.91a5.6,5.6,0,0,0,2,0v.676Zm-2.707.121L30.586,23l-.388.387-1.274-2.124.123-.027A.979.979,0,0,0,29.293,21.707Zm5.414,0a.979.979,0,0,0,.246-.471l.123.027L33.8,23.387,33.414,23ZM32,2a2,2,0,0,1,1.867,1.3,5.941,5.941,0,0,0-3.734,0A2,2,0,0,1,32,2Zm0,3a4,4,0,0,1,4,4v1.022a6.963,6.963,0,0,1-1.1-1.469,1.042,1.042,0,0,0-1.79,0c-.407.814-2.773,1.712-5.1,2.232V9A4,4,0,0,1,32,5Zm-4,7.831a16.2,16.2,0,0,0,5.861-2.221A8.29,8.29,0,0,0,36,12.584V14a4,4,0,0,1-8,0ZM32,30.4l-1.848-4.436a.969.969,0,0,0,.555-.257L32,24.414l1.293,1.293a.974.974,0,0,0,.553.262ZM16,27a1,1,0,1,1-1,1A1,1,0,0,1,16,27ZM48,45H16V43H48Zm3-4H13V37H51Zm1.275-16.139.651-.521,1.611,1.611-.625.547Zm6.615-3.3-2.9,3.009-1.548-1.548L55.8,21.759l.276.274a1,1,0,0,0,1.407,0l.946-.935a.342.342,0,0,1,.48,0,.311.311,0,0,1,.095.225A.332.332,0,0,1,58.89,21.564Z"></path><path d="M24.882,17.472a1,1,0,0,0-.05-1.027L23,13.7V1a1,1,0,0,0-1-1H6A1,1,0,0,0,5,1V17a1,1,0,0,0,1,1H24A1,1,0,0,0,24.882,17.472ZM7,16V2H21V14a1.006,1.006,0,0,0,.168.555L22.132,16Z"></path><rect width="10" height="2" x="9" y="4"></rect><rect width="10" height="2" x="9" y="8"></rect><rect width="10" height="2" x="9" y="12"></rect></g></svg>