<svg xmlns="http://www.w3.org/2000/svg" data-name="Layer 1" viewBox="0 0 64 64"><rect width="22" height="46" x="10" y="2.24" fill="#40bf7c" rx="2" ry="2"></rect><rect width="22" height="10" x="10" y="12.24" fill="#faeed8"></rect><path fill="#2b8955" d="M15.09,22.24H10v24a2,2,0,0,0,2,2H30a2,2,0,0,0,2-2V41.67A22,22,0,0,1,15.09,22.24Z"></path><path fill="#2b8955" d="M15,2.24H12a2,2,0,0,0-2,2v8h5Z"></path><path fill="#e8d4b8" d="M15,20.24v-8H10v10h5.09C15,21.58,15,20.92,15,20.24Z"></path><path fill="#70dda8" d="M30,2.24H18.08a7,7,0,0,0,6.92,6h7v-4A2,2,0,0,0,30,2.24Z"></path><rect width="30" height="31" x="26" y="16.24" fill="#40bf7c" rx="2" ry="2"></rect><polygon fill="#faeed8" points="50 40.24 56 40.24 56 24.24 46 24.24 36 24.24 26 24.24 26 40.24 32 40.24 50 40.24"></polygon><path fill="#2b8955" d="M32,16.24H28a2,2,0,0,0-2,2v6h6Z"></path><path fill="#2b8955" d="M40.26,40.24H26v5a2,2,0,0,0,2,2H54a2,2,0,0,0,2-2v-3H48A15.92,15.92,0,0,1,40.26,40.24Z"></path><path fill="#e8d4b8" d="M40.26,40.24a16,16,0,0,1-8.26-14v-2H26v16H40.26Z"></path><path fill="#70dda8" d="M54,16.24H36.35a6,6,0,0,0,5.65,4H56v-2A2,2,0,0,0,54,16.24Z"></path><path fill="#fd412d" d="M36,12.24H46a0,0,0,0,1,0,0v14a2,2,0,0,1-2,2H38a2,2,0,0,1-2-2v-14A0,0,0,0,1,36,12.24Z" transform="rotate(180 41 20.245)"></path><rect width="10" height="8" x="36" y="20.24" fill="#70dda8" transform="rotate(180 41 24.245)"></rect><path fill="#faa108" d="M48,28.24H34a2,2,0,0,0-2,2v10a5,5,0,0,1,5,5v10a5,5,0,0,1-3.79,4.84,2.06,2.06,0,0,0,.79.16H48a2,2,0,0,0,2-2v-28A2,2,0,0,0,48,28.24Z"></path><path fill="#f9c170" d="M48,28.24H39.14a4,4,0,0,0,3.86,3h7v-1A2,2,0,0,0,48,28.24Z"></path><path fill="#70dda8" d="M32,34.24v6a5,5,0,0,1,5,5v7H50v-18Z"></path><path fill="#fc756b" d="M44,12.24H38.35a6,6,0,0,0,5.65,4h2v-2A2,2,0,0,0,44,12.24Z"></path><circle cx="41" cy="16.24" r="1" fill="#d6332b"></circle><path fill="#d6332b" d="M38,14.24a2,2,0,0,1,2-2H38a2,2,0,0,0-2,2v6h2Z"></path><path fill="#40bf7c" d="M38,20.24H36v8H46v-2H44A6,6,0,0,1,38,20.24Z"></path><path fill="#d6850d" d="M37,45.24v-15a2,2,0,0,1,2-2H34a2,2,0,0,0-2,2v10A5,5,0,0,1,37,45.24Z"></path><path fill="#d6850d" d="M46,55.24a9,9,0,0,1-9-9v9a5,5,0,0,1-3.79,4.84,2.06,2.06,0,0,0,.79.16H48a2,2,0,0,0,2-2v-3Z"></path><path fill="#40bf7c" d="M37,34.24H32v6a5,5,0,0,1,5,5Z"></path><path fill="#40bf7c" d="M37,46.24v6h2.31A8.94,8.94,0,0,1,37,46.24Z"></path><path fill="#d6332b" d="M42,45.24a1.26,1.26,0,0,1-.33-.05,1,1,0,0,1-.67-.95V41.66L37.71,45A1,1,0,0,1,36,44.24v-5a1,1,0,0,1,2,0v2.59l3.29-3.29a1,1,0,0,1,1.71.7v2.15l2.22-2.77a1,1,0,0,1,1.78.62v5a1,1,0,1,1-2,0V42.09l-2.22,2.78A1,1,0,0,1,42,45.24Z"></path><path fill="#d6332b" d="M46,49.24H37a1,1,0,0,1,0-2h9a1,1,0,0,1,0,2Z"></path><path fill="#fd412d" d="M37,45.24a5,5,0,0,0-5-5H19a5,5,0,0,0-5,5v2H37Z"></path><path fill="#70dda8" d="M14,47.24v8a5,5,0,0,0,5,5H32a5,5,0,0,0,5-5v-8Z"></path><rect width="15" height="5" x="18" y="51.24" fill="#fd412d" transform="rotate(180 25.5 53.745)"></rect><path fill="#d6332b" d="M18,46.24v-2a4,4,0,0,1,4-4H19a5,5,0,0,0-5,5v2h4.05C18,46.91,18,46.58,18,46.24Z"></path><path fill="#40bf7c" d="M18.05,47.24H14v8a5,5,0,0,0,5,5H32a5,5,0,0,0,4.9-4H28A10,10,0,0,1,18.05,47.24Z"></path><path fill="#d6332b" d="M19.35,51.24H18v5H28A10,10,0,0,1,19.35,51.24Z"></path><path fill="#fc756b" d="M32,40.24H22.1a5,5,0,0,0,4.9,4h9.9A5,5,0,0,0,32,40.24Z"></path></svg>